# xmcd
#
# Track frame offsets:
#	150
#	19442
#	31072
#	46360
#	62210
#	78435
#	97070
#	108002
#	127295
#	146592
#	165030
#	181605
#
# Disc length: 2635 seconds
#
# Revision: 0
# Processed by: cddbd v1.5.2PL0 Copyright (c) Steve Scherf et al.
# Submitted via: audiograbber 1.82.02
#
DISCID=970a490c
DTITLE=Englebert Hunperdinck - Long Ago And Far Away
DYEAR=1989
DGENRE=Country
TTITLE0=Long ago and far away
TTITLE1=Stardust
TTITLE2=They say it's wonderful
TTITLE3=Harbour lights
TTITLE4=It'll be around
TTITLE5=But Beautiful
TTITLE6=Moon lights becomes you
TTITLE7=Getting Sentimental about you
TTITLE8=In the still of the night
TTITLE9=The more I see you
TTITLE10=Yours
TTITLE11=I'll be seeing you
EXTD=
EXTT0=
EXTT1=
EXTT2=
EXTT3=
EXTT4=
EXTT5=
EXTT6=
EXTT7=
EXTT8=
EXTT9=
EXTT10=
EXTT11=
PLAYORDER=
